# xmcd
#
# Track frame offsets:
#	150
#	24090
#	57697
#	74942
#	97585
#	115292
#	130997
#	156327
#	173732
#	185640
#	205095
#	217700
#	234145
#
# Disc length: 3277 seconds
# Revision: 5
# Processed by: cddbd v1.5.2PL0 Copyright (c) Steve Scherf et al.
# Submitted via: dBpowerAMP V12.0
#
DISCID=b00ccb0d
DTITLE=James Harman - Cards on The Table
DYEAR=1994
DGENRE=Blues
TTITLE0=Night Ridin' Daddy
TTITLE1=Where's my Thang
TTITLE2=Cards on The Table
TTITLE3='Temporary Blues
TTITLE4=Black Under Black
TTITLE5=Don't Spoil my View
TTITLE6=Three-Way Party
TTITLE7=Sparks (Start Flyin')
TTITLE8=Run, Run Tonight
TTITLE9=Last Clean Shirt
TTITLE10=I'll Call You
TTITLE11=Crazy by Degrees
TTITLE12=Walk The Streets (Cold And Lonely)
EXTD=
EXTT0=
EXTT1=
EXTT2=
EXTT3=
EXTT4=
EXTT5=
EXTT6=
EXTT7=
EXTT8=
EXTT9=
EXTT10=
EXTT11=
EXTT12=
PLAYORDER=
